<mxfile host="app.diagrams.net" agent="Mozilla/5.0 (Windows NT 10.0; Win64; x64) AppleWebKit/537.36 (KHTML, like Gecko) Chrome/131.0.0.0 Safari/537.36" version="26.0.3">
  <diagram name="Trang-1" id="rVKyR7nh_XiS1FZYdpux">
    <mxGraphModel dx="1834" dy="2772" grid="1" gridSize="10" guides="1" tooltips="1" connect="1" arrows="1" fold="1" page="0" pageScale="1" pageWidth="827" pageHeight="1169" math="0" shadow="0">
      <root>
        <mxCell id="0" />
        <mxCell id="1" parent="0" />
        <mxCell id="aw_i3ZSyZ6pOpb74CxK2-1" value="User" style="swimlane;fontStyle=2;align=center;verticalAlign=top;childLayout=stackLayout;horizontal=1;startSize=26;horizontalStack=0;resizeParent=1;resizeLast=0;collapsible=1;marginBottom=0;rounded=0;shadow=0;strokeWidth=1;" parent="1" vertex="1">
          <mxGeometry x="40" y="-90" width="160" height="268" as="geometry">
            <mxRectangle x="230" y="140" width="160" height="26" as="alternateBounds" />
          </mxGeometry>
        </mxCell>
        <mxCell id="aw_i3ZSyZ6pOpb74CxK2-2" value="Id" style="text;align=left;verticalAlign=top;spacingLeft=4;spacingRight=4;overflow=hidden;rotatable=0;points=[[0,0.5],[1,0.5]];portConstraint=eastwest;" parent="aw_i3ZSyZ6pOpb74CxK2-1" vertex="1">
          <mxGeometry y="26" width="160" height="26" as="geometry" />
        </mxCell>
        <mxCell id="aw_i3ZSyZ6pOpb74CxK2-8" value="Name" style="text;align=left;verticalAlign=top;spacingLeft=4;spacingRight=4;overflow=hidden;rotatable=0;points=[[0,0.5],[1,0.5]];portConstraint=eastwest;" parent="aw_i3ZSyZ6pOpb74CxK2-1" vertex="1">
          <mxGeometry y="52" width="160" height="26" as="geometry" />
        </mxCell>
        <mxCell id="aw_i3ZSyZ6pOpb74CxK2-9" value="Password" style="text;align=left;verticalAlign=top;spacingLeft=4;spacingRight=4;overflow=hidden;rotatable=0;points=[[0,0.5],[1,0.5]];portConstraint=eastwest;" parent="aw_i3ZSyZ6pOpb74CxK2-1" vertex="1">
          <mxGeometry y="78" width="160" height="26" as="geometry" />
        </mxCell>
        <mxCell id="aw_i3ZSyZ6pOpb74CxK2-10" value="ROLE: role" style="text;align=left;verticalAlign=top;spacingLeft=4;spacingRight=4;overflow=hidden;rotatable=0;points=[[0,0.5],[1,0.5]];portConstraint=eastwest;" parent="aw_i3ZSyZ6pOpb74CxK2-1" vertex="1">
          <mxGeometry y="104" width="160" height="26" as="geometry" />
        </mxCell>
        <mxCell id="aw_i3ZSyZ6pOpb74CxK2-3" value="Phone Number" style="text;align=left;verticalAlign=top;spacingLeft=4;spacingRight=4;overflow=hidden;rotatable=0;points=[[0,0.5],[1,0.5]];portConstraint=eastwest;rounded=0;shadow=0;html=0;" parent="aw_i3ZSyZ6pOpb74CxK2-1" vertex="1">
          <mxGeometry y="130" width="160" height="26" as="geometry" />
        </mxCell>
        <mxCell id="aw_i3ZSyZ6pOpb74CxK2-41" value="address" style="text;align=left;verticalAlign=top;spacingLeft=4;spacingRight=4;overflow=hidden;rotatable=0;points=[[0,0.5],[1,0.5]];portConstraint=eastwest;rounded=0;shadow=0;html=0;" parent="aw_i3ZSyZ6pOpb74CxK2-1" vertex="1">
          <mxGeometry y="156" width="160" height="26" as="geometry" />
        </mxCell>
        <mxCell id="aw_i3ZSyZ6pOpb74CxK2-98" value="buget" style="text;align=left;verticalAlign=top;spacingLeft=4;spacingRight=4;overflow=hidden;rotatable=0;points=[[0,0.5],[1,0.5]];portConstraint=eastwest;rounded=0;shadow=0;html=0;" parent="aw_i3ZSyZ6pOpb74CxK2-1" vertex="1">
          <mxGeometry y="182" width="160" height="26" as="geometry" />
        </mxCell>
        <mxCell id="aw_i3ZSyZ6pOpb74CxK2-4" value="EmailÂ " style="text;align=left;verticalAlign=top;spacingLeft=4;spacingRight=4;overflow=hidden;rotatable=0;points=[[0,0.5],[1,0.5]];portConstraint=eastwest;rounded=0;shadow=0;html=0;" parent="aw_i3ZSyZ6pOpb74CxK2-1" vertex="1">
          <mxGeometry y="208" width="160" height="26" as="geometry" />
        </mxCell>
        <mxCell id="aw_i3ZSyZ6pOpb74CxK2-11" value="created_at" style="text;align=left;verticalAlign=top;spacingLeft=4;spacingRight=4;overflow=hidden;rotatable=0;points=[[0,0.5],[1,0.5]];portConstraint=eastwest;rounded=0;shadow=0;html=0;" parent="aw_i3ZSyZ6pOpb74CxK2-1" vertex="1">
          <mxGeometry y="234" width="160" height="26" as="geometry" />
        </mxCell>
        <mxCell id="aw_i3ZSyZ6pOpb74CxK2-6" value="" style="line;html=1;strokeWidth=1;align=left;verticalAlign=middle;spacingTop=-1;spacingLeft=3;spacingRight=3;rotatable=0;labelPosition=right;points=[];portConstraint=eastwest;" parent="aw_i3ZSyZ6pOpb74CxK2-1" vertex="1">
          <mxGeometry y="260" width="160" height="8" as="geometry" />
        </mxCell>
        <mxCell id="aw_i3ZSyZ6pOpb74CxK2-22" value="Student" style="swimlane;fontStyle=0;align=center;verticalAlign=top;childLayout=stackLayout;horizontal=1;startSize=26;horizontalStack=0;resizeParent=1;resizeLast=0;collapsible=1;marginBottom=0;rounded=0;shadow=0;strokeWidth=1;" parent="1" vertex="1">
          <mxGeometry x="260" y="20" width="160" height="138" as="geometry">
            <mxRectangle x="130" y="380" width="160" height="26" as="alternateBounds" />
          </mxGeometry>
        </mxCell>
        <mxCell id="aw_i3ZSyZ6pOpb74CxK2-23" value="education_level" style="text;align=left;verticalAlign=top;spacingLeft=4;spacingRight=4;overflow=hidden;rotatable=0;points=[[0,0.5],[1,0.5]];portConstraint=eastwest;" parent="aw_i3ZSyZ6pOpb74CxK2-22" vertex="1">
          <mxGeometry y="26" width="160" height="26" as="geometry" />
        </mxCell>
        <mxCell id="aw_i3ZSyZ6pOpb74CxK2-25" value="" style="line;html=1;strokeWidth=1;align=left;verticalAlign=middle;spacingTop=-1;spacingLeft=3;spacingRight=3;rotatable=0;labelPosition=right;points=[];portConstraint=eastwest;" parent="aw_i3ZSyZ6pOpb74CxK2-22" vertex="1">
          <mxGeometry y="52" width="160" height="8" as="geometry" />
        </mxCell>
        <mxCell id="aw_i3ZSyZ6pOpb74CxK2-28" value="" style="endArrow=block;endSize=10;endFill=0;shadow=0;strokeWidth=1;rounded=0;curved=0;edgeStyle=elbowEdgeStyle;elbow=vertical;entryX=0.452;entryY=0.523;entryDx=0;entryDy=0;entryPerimeter=0;exitX=0.444;exitY=0.029;exitDx=0;exitDy=0;exitPerimeter=0;" parent="1" source="aw_i3ZSyZ6pOpb74CxK2-30" target="aw_i3ZSyZ6pOpb74CxK2-6" edge="1">
          <mxGeometry width="160" relative="1" as="geometry">
            <mxPoint x="243.04000000000008" y="367.034" as="sourcePoint" />
            <mxPoint x="130" y="308" as="targetPoint" />
            <Array as="points">
              <mxPoint x="200" y="330" />
            </Array>
          </mxGeometry>
        </mxCell>
        <mxCell id="aw_i3ZSyZ6pOpb74CxK2-29" value="" style="endArrow=block;endSize=10;endFill=0;shadow=0;strokeWidth=1;rounded=0;curved=0;edgeStyle=elbowEdgeStyle;elbow=vertical;entryX=0.45;entryY=0.5;entryDx=0;entryDy=0;entryPerimeter=0;exitX=0.5;exitY=1;exitDx=0;exitDy=0;" parent="1" source="aw_i3ZSyZ6pOpb74CxK2-22" target="aw_i3ZSyZ6pOpb74CxK2-6" edge="1">
          <mxGeometry width="160" relative="1" as="geometry">
            <mxPoint x="340" y="170" as="sourcePoint" />
            <mxPoint x="140" y="282" as="targetPoint" />
            <Array as="points">
              <mxPoint x="110" y="330" />
            </Array>
          </mxGeometry>
        </mxCell>
        <mxCell id="aw_i3ZSyZ6pOpb74CxK2-30" value="Teacher" style="swimlane;fontStyle=0;align=center;verticalAlign=top;childLayout=stackLayout;horizontal=1;startSize=26;horizontalStack=0;resizeParent=1;resizeLast=0;collapsible=1;marginBottom=0;rounded=0;shadow=0;strokeWidth=1;" parent="1" vertex="1">
          <mxGeometry x="-90" y="380" width="160" height="138" as="geometry">
            <mxRectangle x="340" y="380" width="170" height="26" as="alternateBounds" />
          </mxGeometry>
        </mxCell>
        <mxCell id="aw_i3ZSyZ6pOpb74CxK2-31" value="Salary" style="text;align=left;verticalAlign=top;spacingLeft=4;spacingRight=4;overflow=hidden;rotatable=0;points=[[0,0.5],[1,0.5]];portConstraint=eastwest;" parent="aw_i3ZSyZ6pOpb74CxK2-30" vertex="1">
          <mxGeometry y="26" width="160" height="26" as="geometry" />
        </mxCell>
        <mxCell id="aw_i3ZSyZ6pOpb74CxK2-33" value="experience" style="text;align=left;verticalAlign=top;spacingLeft=4;spacingRight=4;overflow=hidden;rotatable=0;points=[[0,0.5],[1,0.5]];portConstraint=eastwest;" parent="aw_i3ZSyZ6pOpb74CxK2-30" vertex="1">
          <mxGeometry y="52" width="160" height="26" as="geometry" />
        </mxCell>
        <mxCell id="aw_i3ZSyZ6pOpb74CxK2-34" value="bio" style="text;align=left;verticalAlign=top;spacingLeft=4;spacingRight=4;overflow=hidden;rotatable=0;points=[[0,0.5],[1,0.5]];portConstraint=eastwest;" parent="aw_i3ZSyZ6pOpb74CxK2-30" vertex="1">
          <mxGeometry y="78" width="160" height="26" as="geometry" />
        </mxCell>
        <mxCell id="aw_i3ZSyZ6pOpb74CxK2-35" value="Major: major&#xa;" style="text;align=left;verticalAlign=top;spacingLeft=4;spacingRight=4;overflow=hidden;rotatable=0;points=[[0,0.5],[1,0.5]];portConstraint=eastwest;" parent="aw_i3ZSyZ6pOpb74CxK2-30" vertex="1">
          <mxGeometry y="104" width="160" height="26" as="geometry" />
        </mxCell>
        <mxCell id="aw_i3ZSyZ6pOpb74CxK2-32" value="" style="line;html=1;strokeWidth=1;align=left;verticalAlign=middle;spacingTop=-1;spacingLeft=3;spacingRight=3;rotatable=0;labelPosition=right;points=[];portConstraint=eastwest;" parent="aw_i3ZSyZ6pOpb74CxK2-30" vertex="1">
          <mxGeometry y="130" width="160" height="8" as="geometry" />
        </mxCell>
        <mxCell id="aw_i3ZSyZ6pOpb74CxK2-36" value="Course" style="swimlane;fontStyle=0;align=center;verticalAlign=top;childLayout=stackLayout;horizontal=1;startSize=26;horizontalStack=0;resizeParent=1;resizeLast=0;collapsible=1;marginBottom=0;rounded=0;shadow=0;strokeWidth=1;" parent="1" vertex="1">
          <mxGeometry x="840" y="-19" width="160" height="216" as="geometry">
            <mxRectangle x="130" y="380" width="160" height="26" as="alternateBounds" />
          </mxGeometry>
        </mxCell>
        <mxCell id="aw_i3ZSyZ6pOpb74CxK2-37" value="id" style="text;align=left;verticalAlign=top;spacingLeft=4;spacingRight=4;overflow=hidden;rotatable=0;points=[[0,0.5],[1,0.5]];portConstraint=eastwest;" parent="aw_i3ZSyZ6pOpb74CxK2-36" vertex="1">
          <mxGeometry y="26" width="160" height="26" as="geometry" />
        </mxCell>
        <mxCell id="aw_i3ZSyZ6pOpb74CxK2-42" value="name" style="text;align=left;verticalAlign=top;spacingLeft=4;spacingRight=4;overflow=hidden;rotatable=0;points=[[0,0.5],[1,0.5]];portConstraint=eastwest;" parent="aw_i3ZSyZ6pOpb74CxK2-36" vertex="1">
          <mxGeometry y="52" width="160" height="26" as="geometry" />
        </mxCell>
        <mxCell id="aw_i3ZSyZ6pOpb74CxK2-44" value="description" style="text;align=left;verticalAlign=top;spacingLeft=4;spacingRight=4;overflow=hidden;rotatable=0;points=[[0,0.5],[1,0.5]];portConstraint=eastwest;" parent="aw_i3ZSyZ6pOpb74CxK2-36" vertex="1">
          <mxGeometry y="78" width="160" height="26" as="geometry" />
        </mxCell>
        <mxCell id="aw_i3ZSyZ6pOpb74CxK2-45" value="mode" style="text;align=left;verticalAlign=top;spacingLeft=4;spacingRight=4;overflow=hidden;rotatable=0;points=[[0,0.5],[1,0.5]];portConstraint=eastwest;" parent="aw_i3ZSyZ6pOpb74CxK2-36" vertex="1">
          <mxGeometry y="104" width="160" height="26" as="geometry" />
        </mxCell>
        <mxCell id="aw_i3ZSyZ6pOpb74CxK2-94" value="price" style="text;align=left;verticalAlign=top;spacingLeft=4;spacingRight=4;overflow=hidden;rotatable=0;points=[[0,0.5],[1,0.5]];portConstraint=eastwest;" parent="aw_i3ZSyZ6pOpb74CxK2-36" vertex="1">
          <mxGeometry y="130" width="160" height="26" as="geometry" />
        </mxCell>
        <mxCell id="aw_i3ZSyZ6pOpb74CxK2-38" value="" style="line;html=1;strokeWidth=1;align=left;verticalAlign=middle;spacingTop=-1;spacingLeft=3;spacingRight=3;rotatable=0;labelPosition=right;points=[];portConstraint=eastwest;" parent="aw_i3ZSyZ6pOpb74CxK2-36" vertex="1">
          <mxGeometry y="156" width="160" height="8" as="geometry" />
        </mxCell>
        <mxCell id="aw_i3ZSyZ6pOpb74CxK2-46" value="ClassesÂ " style="swimlane;fontStyle=0;align=center;verticalAlign=top;childLayout=stackLayout;horizontal=1;startSize=26;horizontalStack=0;resizeParent=1;resizeLast=0;collapsible=1;marginBottom=0;rounded=0;shadow=0;strokeWidth=1;" parent="1" vertex="1">
          <mxGeometry x="730" y="234" width="160" height="320" as="geometry">
            <mxRectangle x="130" y="380" width="160" height="26" as="alternateBounds" />
          </mxGeometry>
        </mxCell>
        <mxCell id="aw_i3ZSyZ6pOpb74CxK2-47" value="id" style="text;align=left;verticalAlign=top;spacingLeft=4;spacingRight=4;overflow=hidden;rotatable=0;points=[[0,0.5],[1,0.5]];portConstraint=eastwest;" parent="aw_i3ZSyZ6pOpb74CxK2-46" vertex="1">
          <mxGeometry y="26" width="160" height="26" as="geometry" />
        </mxCell>
        <mxCell id="aw_i3ZSyZ6pOpb74CxK2-48" value="name" style="text;align=left;verticalAlign=top;spacingLeft=4;spacingRight=4;overflow=hidden;rotatable=0;points=[[0,0.5],[1,0.5]];portConstraint=eastwest;" parent="aw_i3ZSyZ6pOpb74CxK2-46" vertex="1">
          <mxGeometry y="52" width="160" height="26" as="geometry" />
        </mxCell>
        <mxCell id="aw_i3ZSyZ6pOpb74CxK2-49" value="course_id" style="text;align=left;verticalAlign=top;spacingLeft=4;spacingRight=4;overflow=hidden;rotatable=0;points=[[0,0.5],[1,0.5]];portConstraint=eastwest;" parent="aw_i3ZSyZ6pOpb74CxK2-46" vertex="1">
          <mxGeometry y="78" width="160" height="26" as="geometry" />
        </mxCell>
        <mxCell id="aw_i3ZSyZ6pOpb74CxK2-50" value="teacher_id" style="text;align=left;verticalAlign=top;spacingLeft=4;spacingRight=4;overflow=hidden;rotatable=0;points=[[0,0.5],[1,0.5]];portConstraint=eastwest;" parent="aw_i3ZSyZ6pOpb74CxK2-46" vertex="1">
          <mxGeometry y="104" width="160" height="26" as="geometry" />
        </mxCell>
        <mxCell id="aw_i3ZSyZ6pOpb74CxK2-68" value="student_Id&#xa;" style="text;align=left;verticalAlign=top;spacingLeft=4;spacingRight=4;overflow=hidden;rotatable=0;points=[[0,0.5],[1,0.5]];portConstraint=eastwest;" parent="aw_i3ZSyZ6pOpb74CxK2-46" vertex="1">
          <mxGeometry y="130" width="160" height="26" as="geometry" />
        </mxCell>
        <mxCell id="aw_i3ZSyZ6pOpb74CxK2-51" value="start_date" style="text;align=left;verticalAlign=top;spacingLeft=4;spacingRight=4;overflow=hidden;rotatable=0;points=[[0,0.5],[1,0.5]];portConstraint=eastwest;" parent="aw_i3ZSyZ6pOpb74CxK2-46" vertex="1">
          <mxGeometry y="156" width="160" height="26" as="geometry" />
        </mxCell>
        <mxCell id="aw_i3ZSyZ6pOpb74CxK2-55" value="end_date" style="text;align=left;verticalAlign=top;spacingLeft=4;spacingRight=4;overflow=hidden;rotatable=0;points=[[0,0.5],[1,0.5]];portConstraint=eastwest;" parent="aw_i3ZSyZ6pOpb74CxK2-46" vertex="1">
          <mxGeometry y="182" width="160" height="26" as="geometry" />
        </mxCell>
        <mxCell id="aw_i3ZSyZ6pOpb74CxK2-56" value="schedule" style="text;align=left;verticalAlign=top;spacingLeft=4;spacingRight=4;overflow=hidden;rotatable=0;points=[[0,0.5],[1,0.5]];portConstraint=eastwest;" parent="aw_i3ZSyZ6pOpb74CxK2-46" vertex="1">
          <mxGeometry y="208" width="160" height="26" as="geometry" />
        </mxCell>
        <mxCell id="aw_i3ZSyZ6pOpb74CxK2-52" value="" style="line;html=1;strokeWidth=1;align=left;verticalAlign=middle;spacingTop=-1;spacingLeft=3;spacingRight=3;rotatable=0;labelPosition=right;points=[];portConstraint=eastwest;" parent="aw_i3ZSyZ6pOpb74CxK2-46" vertex="1">
          <mxGeometry y="234" width="160" height="8" as="geometry" />
        </mxCell>
        <mxCell id="aw_i3ZSyZ6pOpb74CxK2-57" value="Lesson" style="swimlane;fontStyle=0;align=center;verticalAlign=top;childLayout=stackLayout;horizontal=1;startSize=26;horizontalStack=0;resizeParent=1;resizeLast=0;collapsible=1;marginBottom=0;rounded=0;shadow=0;strokeWidth=1;" parent="1" vertex="1">
          <mxGeometry x="355" y="341" width="160" height="216" as="geometry">
            <mxRectangle x="130" y="380" width="160" height="26" as="alternateBounds" />
          </mxGeometry>
        </mxCell>
        <mxCell id="aw_i3ZSyZ6pOpb74CxK2-58" value="id" style="text;align=left;verticalAlign=top;spacingLeft=4;spacingRight=4;overflow=hidden;rotatable=0;points=[[0,0.5],[1,0.5]];portConstraint=eastwest;" parent="aw_i3ZSyZ6pOpb74CxK2-57" vertex="1">
          <mxGeometry y="26" width="160" height="26" as="geometry" />
        </mxCell>
        <mxCell id="aw_i3ZSyZ6pOpb74CxK2-60" value="name" style="text;align=left;verticalAlign=top;spacingLeft=4;spacingRight=4;overflow=hidden;rotatable=0;points=[[0,0.5],[1,0.5]];portConstraint=eastwest;" parent="aw_i3ZSyZ6pOpb74CxK2-57" vertex="1">
          <mxGeometry y="52" width="160" height="26" as="geometry" />
        </mxCell>
        <mxCell id="aw_i3ZSyZ6pOpb74CxK2-102" value="class_id" style="text;align=left;verticalAlign=top;spacingLeft=4;spacingRight=4;overflow=hidden;rotatable=0;points=[[0,0.5],[1,0.5]];portConstraint=eastwest;" parent="aw_i3ZSyZ6pOpb74CxK2-57" vertex="1">
          <mxGeometry y="78" width="160" height="26" as="geometry" />
        </mxCell>
        <mxCell id="aw_i3ZSyZ6pOpb74CxK2-61" value="content" style="text;align=left;verticalAlign=top;spacingLeft=4;spacingRight=4;overflow=hidden;rotatable=0;points=[[0,0.5],[1,0.5]];portConstraint=eastwest;" parent="aw_i3ZSyZ6pOpb74CxK2-57" vertex="1">
          <mxGeometry y="104" width="160" height="26" as="geometry" />
        </mxCell>
        <mxCell id="aw_i3ZSyZ6pOpb74CxK2-62" value="order" style="text;align=left;verticalAlign=top;spacingLeft=4;spacingRight=4;overflow=hidden;rotatable=0;points=[[0,0.5],[1,0.5]];portConstraint=eastwest;" parent="aw_i3ZSyZ6pOpb74CxK2-57" vertex="1">
          <mxGeometry y="130" width="160" height="26" as="geometry" />
        </mxCell>
        <mxCell id="aw_i3ZSyZ6pOpb74CxK2-63" value="" style="line;html=1;strokeWidth=1;align=left;verticalAlign=middle;spacingTop=-1;spacingLeft=3;spacingRight=3;rotatable=0;labelPosition=right;points=[];portConstraint=eastwest;" parent="aw_i3ZSyZ6pOpb74CxK2-57" vertex="1">
          <mxGeometry y="156" width="160" height="8" as="geometry" />
        </mxCell>
        <mxCell id="54mSPvLYBZvLIirZFEM0-18" style="edgeStyle=orthogonalEdgeStyle;rounded=0;orthogonalLoop=1;jettySize=auto;html=1;exitX=0.25;exitY=0;exitDx=0;exitDy=0;entryX=0;entryY=0.5;entryDx=0;entryDy=0;" parent="1" source="aw_i3ZSyZ6pOpb74CxK2-69" target="aw_i3ZSyZ6pOpb74CxK2-68" edge="1">
          <mxGeometry relative="1" as="geometry" />
        </mxCell>
        <mxCell id="aw_i3ZSyZ6pOpb74CxK2-69" value="Score" style="swimlane;fontStyle=0;align=center;verticalAlign=top;childLayout=stackLayout;horizontal=1;startSize=26;horizontalStack=0;resizeParent=1;resizeLast=0;collapsible=1;marginBottom=0;rounded=0;shadow=0;strokeWidth=1;" parent="1" vertex="1">
          <mxGeometry x="560" y="600" width="160" height="190" as="geometry">
            <mxRectangle x="130" y="380" width="160" height="26" as="alternateBounds" />
          </mxGeometry>
        </mxCell>
        <mxCell id="aw_i3ZSyZ6pOpb74CxK2-70" value="id&#xa;" style="text;align=left;verticalAlign=top;spacingLeft=4;spacingRight=4;overflow=hidden;rotatable=0;points=[[0,0.5],[1,0.5]];portConstraint=eastwest;" parent="aw_i3ZSyZ6pOpb74CxK2-69" vertex="1">
          <mxGeometry y="26" width="160" height="26" as="geometry" />
        </mxCell>
        <mxCell id="aw_i3ZSyZ6pOpb74CxK2-76" value="student_id" style="text;align=left;verticalAlign=top;spacingLeft=4;spacingRight=4;overflow=hidden;rotatable=0;points=[[0,0.5],[1,0.5]];portConstraint=eastwest;" parent="aw_i3ZSyZ6pOpb74CxK2-69" vertex="1">
          <mxGeometry y="52" width="160" height="26" as="geometry" />
        </mxCell>
        <mxCell id="aw_i3ZSyZ6pOpb74CxK2-77" value="lesson_id" style="text;align=left;verticalAlign=top;spacingLeft=4;spacingRight=4;overflow=hidden;rotatable=0;points=[[0,0.5],[1,0.5]];portConstraint=eastwest;" parent="aw_i3ZSyZ6pOpb74CxK2-69" vertex="1">
          <mxGeometry y="78" width="160" height="26" as="geometry" />
        </mxCell>
        <mxCell id="aw_i3ZSyZ6pOpb74CxK2-80" value="score" style="text;align=left;verticalAlign=top;spacingLeft=4;spacingRight=4;overflow=hidden;rotatable=0;points=[[0,0.5],[1,0.5]];portConstraint=eastwest;" parent="aw_i3ZSyZ6pOpb74CxK2-69" vertex="1">
          <mxGeometry y="104" width="160" height="26" as="geometry" />
        </mxCell>
        <mxCell id="aw_i3ZSyZ6pOpb74CxK2-71" value="" style="line;html=1;strokeWidth=1;align=left;verticalAlign=middle;spacingTop=-1;spacingLeft=3;spacingRight=3;rotatable=0;labelPosition=right;points=[];portConstraint=eastwest;" parent="aw_i3ZSyZ6pOpb74CxK2-69" vertex="1">
          <mxGeometry y="130" width="160" height="8" as="geometry" />
        </mxCell>
        <mxCell id="aw_i3ZSyZ6pOpb74CxK2-82" value="Enrollments" style="swimlane;fontStyle=0;align=center;verticalAlign=top;childLayout=stackLayout;horizontal=1;startSize=26;horizontalStack=0;resizeParent=1;resizeLast=0;collapsible=1;marginBottom=0;rounded=0;shadow=0;strokeWidth=1;" parent="1" vertex="1">
          <mxGeometry x="550" y="-170" width="160" height="216" as="geometry">
            <mxRectangle x="130" y="380" width="160" height="26" as="alternateBounds" />
          </mxGeometry>
        </mxCell>
        <mxCell id="aw_i3ZSyZ6pOpb74CxK2-83" value="id" style="text;align=left;verticalAlign=top;spacingLeft=4;spacingRight=4;overflow=hidden;rotatable=0;points=[[0,0.5],[1,0.5]];portConstraint=eastwest;" parent="aw_i3ZSyZ6pOpb74CxK2-82" vertex="1">
          <mxGeometry y="26" width="160" height="26" as="geometry" />
        </mxCell>
        <mxCell id="aw_i3ZSyZ6pOpb74CxK2-84" value="user_id" style="text;align=left;verticalAlign=top;spacingLeft=4;spacingRight=4;overflow=hidden;rotatable=0;points=[[0,0.5],[1,0.5]];portConstraint=eastwest;" parent="aw_i3ZSyZ6pOpb74CxK2-82" vertex="1">
          <mxGeometry y="52" width="160" height="26" as="geometry" />
        </mxCell>
        <mxCell id="aw_i3ZSyZ6pOpb74CxK2-85" value="course_id" style="text;align=left;verticalAlign=top;spacingLeft=4;spacingRight=4;overflow=hidden;rotatable=0;points=[[0,0.5],[1,0.5]];portConstraint=eastwest;" parent="aw_i3ZSyZ6pOpb74CxK2-82" vertex="1">
          <mxGeometry y="78" width="160" height="26" as="geometry" />
        </mxCell>
        <mxCell id="aw_i3ZSyZ6pOpb74CxK2-86" value="status" style="text;align=left;verticalAlign=top;spacingLeft=4;spacingRight=4;overflow=hidden;rotatable=0;points=[[0,0.5],[1,0.5]];portConstraint=eastwest;" parent="aw_i3ZSyZ6pOpb74CxK2-82" vertex="1">
          <mxGeometry y="104" width="160" height="26" as="geometry" />
        </mxCell>
        <mxCell id="aw_i3ZSyZ6pOpb74CxK2-87" value="" style="line;html=1;strokeWidth=1;align=left;verticalAlign=middle;spacingTop=-1;spacingLeft=3;spacingRight=3;rotatable=0;labelPosition=right;points=[];portConstraint=eastwest;" parent="aw_i3ZSyZ6pOpb74CxK2-82" vertex="1">
          <mxGeometry y="130" width="160" height="8" as="geometry" />
        </mxCell>
        <mxCell id="heB53jGHx2SAs-rPZqRT-1" value="admin" style="shape=umlActor;verticalLabelPosition=bottom;verticalAlign=top;html=1;outlineConnect=0;" parent="1" vertex="1">
          <mxGeometry x="160" y="-660" width="30" height="60" as="geometry" />
        </mxCell>
        <mxCell id="heB53jGHx2SAs-rPZqRT-2" value="teacher" style="shape=umlActor;verticalLabelPosition=bottom;verticalAlign=top;html=1;outlineConnect=0;" parent="1" vertex="1">
          <mxGeometry x="160" y="-480" width="30" height="60" as="geometry" />
        </mxCell>
        <mxCell id="heB53jGHx2SAs-rPZqRT-6" value="quáº£n lÃ½ blog" style="ellipse;whiteSpace=wrap;html=1;" parent="1" vertex="1">
          <mxGeometry x="310" y="-780" width="170" height="60" as="geometry" />
        </mxCell>
        <mxCell id="heB53jGHx2SAs-rPZqRT-7" style="edgeStyle=orthogonalEdgeStyle;rounded=0;orthogonalLoop=1;jettySize=auto;html=1;exitX=0.5;exitY=1;exitDx=0;exitDy=0;" parent="1" source="heB53jGHx2SAs-rPZqRT-6" target="heB53jGHx2SAs-rPZqRT-6" edge="1">
          <mxGeometry relative="1" as="geometry" />
        </mxCell>
        <mxCell id="heB53jGHx2SAs-rPZqRT-9" value="quáº£n lÃ½ khoÃ¡ há»c" style="ellipse;whiteSpace=wrap;html=1;" parent="1" vertex="1">
          <mxGeometry x="320" y="-660" width="180" height="60" as="geometry" />
        </mxCell>
        <mxCell id="heB53jGHx2SAs-rPZqRT-10" value="quáº£n lÃ½ lá»p há»c" style="ellipse;whiteSpace=wrap;html=1;" parent="1" vertex="1">
          <mxGeometry x="325" y="-580" width="170" height="60" as="geometry" />
        </mxCell>
        <mxCell id="heB53jGHx2SAs-rPZqRT-11" value="quáº£n lÃ½ user(teacher, student)" style="ellipse;whiteSpace=wrap;html=1;" parent="1" vertex="1">
          <mxGeometry x="140" y="-830" width="170" height="60" as="geometry" />
        </mxCell>
        <mxCell id="heB53jGHx2SAs-rPZqRT-12" value="cháº¥m Äiá»m cho há»c viÃªn" style="ellipse;whiteSpace=wrap;html=1;" parent="1" vertex="1">
          <mxGeometry x="350" y="-510" width="170" height="60" as="geometry" />
        </mxCell>
        <mxCell id="heB53jGHx2SAs-rPZqRT-13" value="ÄÄng blog" style="ellipse;whiteSpace=wrap;html=1;" parent="1" vertex="1">
          <mxGeometry x="350" y="-360" width="170" height="60" as="geometry" />
        </mxCell>
        <mxCell id="heB53jGHx2SAs-rPZqRT-14" value="quáº£n lÃ½ lesson" style="ellipse;whiteSpace=wrap;html=1;" parent="1" vertex="1">
          <mxGeometry x="345" y="-440" width="170" height="60" as="geometry" />
        </mxCell>
        <mxCell id="heB53jGHx2SAs-rPZqRT-15" value="student" style="shape=umlActor;verticalLabelPosition=bottom;verticalAlign=top;html=1;outlineConnect=0;" parent="1" vertex="1">
          <mxGeometry x="830" y="-740" width="30" height="60" as="geometry" />
        </mxCell>
        <mxCell id="heB53jGHx2SAs-rPZqRT-16" value="ÄÄng kÃ½ khoÃ¡ há»c" style="ellipse;whiteSpace=wrap;html=1;" parent="1" vertex="1">
          <mxGeometry x="590" y="-810" width="170" height="60" as="geometry" />
        </mxCell>
        <mxCell id="heB53jGHx2SAs-rPZqRT-17" value="thanh toÃ¡n khoÃ¡ há»c( báº±ng vÃ­, ATM)" style="ellipse;whiteSpace=wrap;html=1;" parent="1" vertex="1">
          <mxGeometry x="590" y="-720" width="170" height="60" as="geometry" />
        </mxCell>
        <mxCell id="heB53jGHx2SAs-rPZqRT-19" value="Xem Äiá»m, blog, khoÃ¡ há»c, class" style="ellipse;whiteSpace=wrap;html=1;" parent="1" vertex="1">
          <mxGeometry x="605" y="-610" width="170" height="60" as="geometry" />
        </mxCell>
        <mxCell id="heB53jGHx2SAs-rPZqRT-20" value="" style="endArrow=classic;html=1;rounded=0;entryX=0.7;entryY=0.95;entryDx=0;entryDy=0;entryPerimeter=0;" parent="1" source="heB53jGHx2SAs-rPZqRT-1" target="heB53jGHx2SAs-rPZqRT-11" edge="1">
          <mxGeometry width="50" height="50" relative="1" as="geometry">
            <mxPoint x="370" y="-650" as="sourcePoint" />
            <mxPoint x="420" y="-700" as="targetPoint" />
          </mxGeometry>
        </mxCell>
        <mxCell id="heB53jGHx2SAs-rPZqRT-21" value="" style="endArrow=classic;html=1;rounded=0;entryX=0.5;entryY=1;entryDx=0;entryDy=0;" parent="1" source="heB53jGHx2SAs-rPZqRT-1" target="heB53jGHx2SAs-rPZqRT-6" edge="1">
          <mxGeometry width="50" height="50" relative="1" as="geometry">
            <mxPoint x="370" y="-650" as="sourcePoint" />
            <mxPoint x="420" y="-700" as="targetPoint" />
          </mxGeometry>
        </mxCell>
        <mxCell id="heB53jGHx2SAs-rPZqRT-22" value="" style="endArrow=classic;html=1;rounded=0;" parent="1" source="heB53jGHx2SAs-rPZqRT-1" target="heB53jGHx2SAs-rPZqRT-9" edge="1">
          <mxGeometry width="50" height="50" relative="1" as="geometry">
            <mxPoint x="370" y="-650" as="sourcePoint" />
            <mxPoint x="420" y="-700" as="targetPoint" />
          </mxGeometry>
        </mxCell>
        <mxCell id="heB53jGHx2SAs-rPZqRT-23" value="" style="endArrow=classic;html=1;rounded=0;exitX=1;exitY=0.3333333333333333;exitDx=0;exitDy=0;exitPerimeter=0;" parent="1" source="heB53jGHx2SAs-rPZqRT-1" target="heB53jGHx2SAs-rPZqRT-10" edge="1">
          <mxGeometry width="50" height="50" relative="1" as="geometry">
            <mxPoint x="370" y="-680" as="sourcePoint" />
            <mxPoint x="420" y="-730" as="targetPoint" />
          </mxGeometry>
        </mxCell>
        <mxCell id="heB53jGHx2SAs-rPZqRT-24" value="" style="endArrow=classic;html=1;rounded=0;exitX=1;exitY=0.3333333333333333;exitDx=0;exitDy=0;exitPerimeter=0;" parent="1" source="heB53jGHx2SAs-rPZqRT-2" target="heB53jGHx2SAs-rPZqRT-12" edge="1">
          <mxGeometry width="50" height="50" relative="1" as="geometry">
            <mxPoint x="370" y="-560" as="sourcePoint" />
            <mxPoint x="420" y="-610" as="targetPoint" />
          </mxGeometry>
        </mxCell>
        <mxCell id="heB53jGHx2SAs-rPZqRT-25" value="" style="endArrow=classic;html=1;rounded=0;exitX=1;exitY=0.3333333333333333;exitDx=0;exitDy=0;exitPerimeter=0;" parent="1" source="heB53jGHx2SAs-rPZqRT-2" target="heB53jGHx2SAs-rPZqRT-14" edge="1">
          <mxGeometry width="50" height="50" relative="1" as="geometry">
            <mxPoint x="370" y="-560" as="sourcePoint" />
            <mxPoint x="420" y="-610" as="targetPoint" />
          </mxGeometry>
        </mxCell>
        <mxCell id="heB53jGHx2SAs-rPZqRT-26" value="" style="endArrow=classic;html=1;rounded=0;exitX=1;exitY=0.3333333333333333;exitDx=0;exitDy=0;exitPerimeter=0;entryX=0;entryY=0.5;entryDx=0;entryDy=0;" parent="1" source="heB53jGHx2SAs-rPZqRT-2" target="heB53jGHx2SAs-rPZqRT-13" edge="1">
          <mxGeometry width="50" height="50" relative="1" as="geometry">
            <mxPoint x="370" y="-560" as="sourcePoint" />
            <mxPoint x="420" y="-610" as="targetPoint" />
          </mxGeometry>
        </mxCell>
        <mxCell id="heB53jGHx2SAs-rPZqRT-30" value="" style="endArrow=classic;html=1;rounded=0;entryX=1;entryY=0.5;entryDx=0;entryDy=0;exitX=0;exitY=0.3333333333333333;exitDx=0;exitDy=0;exitPerimeter=0;" parent="1" source="heB53jGHx2SAs-rPZqRT-15" target="heB53jGHx2SAs-rPZqRT-16" edge="1">
          <mxGeometry width="50" height="50" relative="1" as="geometry">
            <mxPoint x="370" y="-560" as="sourcePoint" />
            <mxPoint x="420" y="-610" as="targetPoint" />
          </mxGeometry>
        </mxCell>
        <mxCell id="heB53jGHx2SAs-rPZqRT-31" value="" style="endArrow=classic;html=1;rounded=0;exitX=0;exitY=0.3333333333333333;exitDx=0;exitDy=0;exitPerimeter=0;" parent="1" source="heB53jGHx2SAs-rPZqRT-15" target="heB53jGHx2SAs-rPZqRT-17" edge="1">
          <mxGeometry width="50" height="50" relative="1" as="geometry">
            <mxPoint x="370" y="-560" as="sourcePoint" />
            <mxPoint x="420" y="-610" as="targetPoint" />
          </mxGeometry>
        </mxCell>
        <mxCell id="heB53jGHx2SAs-rPZqRT-32" value="" style="endArrow=classic;html=1;rounded=0;entryX=0.935;entryY=0.283;entryDx=0;entryDy=0;entryPerimeter=0;" parent="1" target="heB53jGHx2SAs-rPZqRT-19" edge="1">
          <mxGeometry width="50" height="50" relative="1" as="geometry">
            <mxPoint x="830" y="-720" as="sourcePoint" />
            <mxPoint x="420" y="-610" as="targetPoint" />
          </mxGeometry>
        </mxCell>
        <mxCell id="VZ9ixuqr7skVYwZhriUe-4" value="" style="endArrow=none;html=1;rounded=0;exitX=0.25;exitY=1;exitDx=0;exitDy=0;entryX=0.5;entryY=0;entryDx=0;entryDy=0;" parent="1" source="aw_i3ZSyZ6pOpb74CxK2-36" target="aw_i3ZSyZ6pOpb74CxK2-46" edge="1">
          <mxGeometry relative="1" as="geometry">
            <mxPoint x="840" y="164.99400000000014" as="sourcePoint" />
            <mxPoint x="750" y="310" as="targetPoint" />
          </mxGeometry>
        </mxCell>
        <mxCell id="VZ9ixuqr7skVYwZhriUe-5" value="1" style="resizable=0;html=1;whiteSpace=wrap;align=left;verticalAlign=bottom;" parent="VZ9ixuqr7skVYwZhriUe-4" connectable="0" vertex="1">
          <mxGeometry x="-1" relative="1" as="geometry">
            <mxPoint x="-10" y="33" as="offset" />
          </mxGeometry>
        </mxCell>
        <mxCell id="VZ9ixuqr7skVYwZhriUe-6" value="N" style="resizable=0;html=1;whiteSpace=wrap;align=right;verticalAlign=bottom;" parent="VZ9ixuqr7skVYwZhriUe-4" connectable="0" vertex="1">
          <mxGeometry x="1" relative="1" as="geometry">
            <mxPoint x="20" as="offset" />
          </mxGeometry>
        </mxCell>
        <mxCell id="VZ9ixuqr7skVYwZhriUe-7" value="" style="endArrow=none;html=1;rounded=0;exitX=0.981;exitY=0.072;exitDx=0;exitDy=0;exitPerimeter=0;entryX=-0.012;entryY=0.069;entryDx=0;entryDy=0;entryPerimeter=0;" parent="1" source="aw_i3ZSyZ6pOpb74CxK2-22" target="aw_i3ZSyZ6pOpb74CxK2-82" edge="1">
          <mxGeometry relative="1" as="geometry">
            <mxPoint x="420" y="150" as="sourcePoint" />
            <mxPoint x="600" y="140" as="targetPoint" />
          </mxGeometry>
        </mxCell>
        <mxCell id="VZ9ixuqr7skVYwZhriUe-10" value="" style="endArrow=none;html=1;rounded=0;exitX=-0.025;exitY=0.034;exitDx=0;exitDy=0;exitPerimeter=0;entryX=1.013;entryY=0.06;entryDx=0;entryDy=0;entryPerimeter=0;" parent="1" source="aw_i3ZSyZ6pOpb74CxK2-46" target="aw_i3ZSyZ6pOpb74CxK2-57" edge="1">
          <mxGeometry relative="1" as="geometry">
            <mxPoint x="420" y="350" as="sourcePoint" />
            <mxPoint x="580" y="350" as="targetPoint" />
          </mxGeometry>
        </mxCell>
        <mxCell id="VZ9ixuqr7skVYwZhriUe-11" value="1" style="resizable=0;html=1;whiteSpace=wrap;align=left;verticalAlign=bottom;" parent="VZ9ixuqr7skVYwZhriUe-10" connectable="0" vertex="1">
          <mxGeometry x="-1" relative="1" as="geometry">
            <mxPoint x="-16" y="29" as="offset" />
          </mxGeometry>
        </mxCell>
        <mxCell id="VZ9ixuqr7skVYwZhriUe-12" value="N" style="resizable=0;html=1;whiteSpace=wrap;align=right;verticalAlign=bottom;" parent="VZ9ixuqr7skVYwZhriUe-10" connectable="0" vertex="1">
          <mxGeometry x="1" relative="1" as="geometry">
            <mxPoint x="18" y="17" as="offset" />
          </mxGeometry>
        </mxCell>
        <mxCell id="VZ9ixuqr7skVYwZhriUe-14" value="" style="endArrow=none;html=1;rounded=0;exitX=1;exitY=0.808;exitDx=0;exitDy=0;exitPerimeter=0;entryX=0;entryY=0;entryDx=0;entryDy=0;" parent="1" source="aw_i3ZSyZ6pOpb74CxK2-58" target="aw_i3ZSyZ6pOpb74CxK2-69" edge="1">
          <mxGeometry relative="1" as="geometry">
            <mxPoint x="420" y="550" as="sourcePoint" />
            <mxPoint x="580" y="550" as="targetPoint" />
          </mxGeometry>
        </mxCell>
        <mxCell id="VZ9ixuqr7skVYwZhriUe-15" value="1" style="resizable=0;html=1;whiteSpace=wrap;align=right;verticalAlign=bottom;" parent="VZ9ixuqr7skVYwZhriUe-14" connectable="0" vertex="1">
          <mxGeometry x="1" relative="1" as="geometry">
            <mxPoint x="20" y="-3" as="offset" />
          </mxGeometry>
        </mxCell>
        <mxCell id="VZ9ixuqr7skVYwZhriUe-16" value="1" style="text;html=1;align=center;verticalAlign=middle;resizable=0;points=[];autosize=1;strokeColor=none;fillColor=none;" parent="1" vertex="1">
          <mxGeometry x="405" y="-12" width="30" height="30" as="geometry" />
        </mxCell>
        <mxCell id="VZ9ixuqr7skVYwZhriUe-17" value="1" style="text;html=1;align=center;verticalAlign=middle;resizable=0;points=[];autosize=1;strokeColor=none;fillColor=none;" parent="1" vertex="1">
          <mxGeometry x="500" y="-160" width="30" height="30" as="geometry" />
        </mxCell>
        <mxCell id="VZ9ixuqr7skVYwZhriUe-20" value="" style="endArrow=none;html=1;rounded=0;exitX=0.013;exitY=0.046;exitDx=0;exitDy=0;exitPerimeter=0;entryX=1;entryY=0.046;entryDx=0;entryDy=0;entryPerimeter=0;" parent="1" source="aw_i3ZSyZ6pOpb74CxK2-36" target="aw_i3ZSyZ6pOpb74CxK2-82" edge="1">
          <mxGeometry relative="1" as="geometry">
            <mxPoint x="427" y="40" as="sourcePoint" />
            <mxPoint x="558" y="-195" as="targetPoint" />
          </mxGeometry>
        </mxCell>
        <mxCell id="VZ9ixuqr7skVYwZhriUe-21" value="1" style="text;html=1;align=center;verticalAlign=middle;resizable=0;points=[];autosize=1;strokeColor=none;fillColor=none;" parent="1" vertex="1">
          <mxGeometry x="815" y="-62" width="30" height="30" as="geometry" />
        </mxCell>
        <mxCell id="VZ9ixuqr7skVYwZhriUe-22" value="1" style="text;html=1;align=center;verticalAlign=middle;resizable=0;points=[];autosize=1;strokeColor=none;fillColor=none;" parent="1" vertex="1">
          <mxGeometry x="720" y="-180" width="30" height="30" as="geometry" />
        </mxCell>
        <mxCell id="VZ9ixuqr7skVYwZhriUe-27" value="" style="endArrow=none;html=1;rounded=0;exitX=0;exitY=0;exitDx=0;exitDy=0;entryX=1.006;entryY=1;entryDx=0;entryDy=0;entryPerimeter=0;" parent="1" source="aw_i3ZSyZ6pOpb74CxK2-46" edge="1">
          <mxGeometry relative="1" as="geometry">
            <mxPoint x="595" y="158" as="sourcePoint" />
            <mxPoint x="420.96000000000004" y="106" as="targetPoint" />
          </mxGeometry>
        </mxCell>
        <mxCell id="VZ9ixuqr7skVYwZhriUe-28" value="n" style="resizable=0;html=1;whiteSpace=wrap;align=right;verticalAlign=bottom;" parent="VZ9ixuqr7skVYwZhriUe-27" connectable="0" vertex="1">
          <mxGeometry x="1" relative="1" as="geometry">
            <mxPoint x="20" y="-3" as="offset" />
          </mxGeometry>
        </mxCell>
        <mxCell id="VZ9ixuqr7skVYwZhriUe-29" value="1" style="text;html=1;align=center;verticalAlign=middle;resizable=0;points=[];autosize=1;strokeColor=none;fillColor=none;" parent="1" vertex="1">
          <mxGeometry x="785" y="278" width="30" height="30" as="geometry" />
        </mxCell>
        <mxCell id="VZ9ixuqr7skVYwZhriUe-30" value="extent" style="text;html=1;align=center;verticalAlign=middle;resizable=0;points=[];autosize=1;strokeColor=none;fillColor=none;" parent="1" vertex="1">
          <mxGeometry x="200" y="308" width="60" height="30" as="geometry" />
        </mxCell>
        <mxCell id="VZ9ixuqr7skVYwZhriUe-31" value="extent" style="text;html=1;align=center;verticalAlign=middle;resizable=0;points=[];autosize=1;strokeColor=none;fillColor=none;" parent="1" vertex="1">
          <mxGeometry x="10" y="298" width="60" height="30" as="geometry" />
        </mxCell>
        <mxCell id="VZ9ixuqr7skVYwZhriUe-32" value="ADMIN" style="swimlane;fontStyle=0;align=center;verticalAlign=top;childLayout=stackLayout;horizontal=1;startSize=26;horizontalStack=0;resizeParent=1;resizeLast=0;collapsible=1;marginBottom=0;rounded=0;shadow=0;strokeWidth=1;" parent="1" vertex="1">
          <mxGeometry x="-210" y="110" width="160" height="138" as="geometry">
            <mxRectangle x="130" y="380" width="160" height="26" as="alternateBounds" />
          </mxGeometry>
        </mxCell>
        <mxCell id="VZ9ixuqr7skVYwZhriUe-34" value="" style="line;html=1;strokeWidth=1;align=left;verticalAlign=middle;spacingTop=-1;spacingLeft=3;spacingRight=3;rotatable=0;labelPosition=right;points=[];portConstraint=eastwest;" parent="VZ9ixuqr7skVYwZhriUe-32" vertex="1">
          <mxGeometry y="26" width="160" height="8" as="geometry" />
        </mxCell>
        <mxCell id="mEupRj_DlQTnY0gDUOIu-1" value="" style="endArrow=block;endSize=10;endFill=0;shadow=0;strokeWidth=1;rounded=0;curved=0;edgeStyle=elbowEdgeStyle;elbow=vertical;entryX=0.45;entryY=0.5;entryDx=0;entryDy=0;entryPerimeter=0;" parent="1" edge="1">
          <mxGeometry width="160" relative="1" as="geometry">
            <mxPoint x="-140" y="250" as="sourcePoint" />
            <mxPoint x="112" y="172" as="targetPoint" />
            <Array as="points">
              <mxPoint x="110" y="328" />
            </Array>
          </mxGeometry>
        </mxCell>
        <mxCell id="mEupRj_DlQTnY0gDUOIu-6" value="extent" style="text;html=1;align=center;verticalAlign=middle;resizable=0;points=[];autosize=1;strokeColor=none;fillColor=none;" parent="1" vertex="1">
          <mxGeometry x="-140" y="278" width="60" height="30" as="geometry" />
        </mxCell>
        <mxCell id="54mSPvLYBZvLIirZFEM0-3" value="" style="edgeStyle=orthogonalEdgeStyle;rounded=0;orthogonalLoop=1;jettySize=auto;html=1;" parent="1" source="54mSPvLYBZvLIirZFEM0-1" target="54mSPvLYBZvLIirZFEM0-2" edge="1">
          <mxGeometry relative="1" as="geometry" />
        </mxCell>
        <mxCell id="54mSPvLYBZvLIirZFEM0-1" value="" style="ellipse;whiteSpace=wrap;html=1;aspect=fixed;" parent="1" vertex="1">
          <mxGeometry x="375" y="-1880" width="50" height="50" as="geometry" />
        </mxCell>
        <mxCell id="54mSPvLYBZvLIirZFEM0-7" value="" style="edgeStyle=orthogonalEdgeStyle;rounded=0;orthogonalLoop=1;jettySize=auto;html=1;" parent="1" source="54mSPvLYBZvLIirZFEM0-2" target="54mSPvLYBZvLIirZFEM0-4" edge="1">
          <mxGeometry relative="1" as="geometry" />
        </mxCell>
        <mxCell id="54mSPvLYBZvLIirZFEM0-2" value="ÄÄng kÃ½ khoÃ¡ há»c" style="rounded=1;whiteSpace=wrap;html=1;" parent="1" vertex="1">
          <mxGeometry x="345" y="-1810" width="120" height="60" as="geometry" />
        </mxCell>
        <mxCell id="54mSPvLYBZvLIirZFEM0-6" value="" style="edgeStyle=orthogonalEdgeStyle;rounded=0;orthogonalLoop=1;jettySize=auto;html=1;" parent="1" source="54mSPvLYBZvLIirZFEM0-4" target="54mSPvLYBZvLIirZFEM0-5" edge="1">
          <mxGeometry relative="1" as="geometry">
            <Array as="points">
              <mxPoint x="400" y="-1570" />
              <mxPoint x="400" y="-1570" />
            </Array>
          </mxGeometry>
        </mxCell>
        <mxCell id="rIPCqXTWfstY7Fvrf4iB-15" value="" style="edgeStyle=orthogonalEdgeStyle;rounded=0;orthogonalLoop=1;jettySize=auto;html=1;" edge="1" parent="1" source="54mSPvLYBZvLIirZFEM0-4" target="rIPCqXTWfstY7Fvrf4iB-14">
          <mxGeometry relative="1" as="geometry" />
        </mxCell>
        <mxCell id="54mSPvLYBZvLIirZFEM0-4" value="Kiá»m tra ÄÄn nháº­p" style="rhombus;whiteSpace=wrap;html=1;" parent="1" vertex="1">
          <mxGeometry x="342.5" y="-1720" width="115" height="80" as="geometry" />
        </mxCell>
        <mxCell id="54mSPvLYBZvLIirZFEM0-9" value="" style="edgeStyle=orthogonalEdgeStyle;rounded=0;orthogonalLoop=1;jettySize=auto;html=1;" parent="1" source="54mSPvLYBZvLIirZFEM0-5" target="54mSPvLYBZvLIirZFEM0-8" edge="1">
          <mxGeometry relative="1" as="geometry" />
        </mxCell>
        <mxCell id="54mSPvLYBZvLIirZFEM0-5" value="hiá»n thá» thÃ´ng tin khoÃ¡ há»c dang cÃ³" style="whiteSpace=wrap;html=1;" parent="1" vertex="1">
          <mxGeometry x="325" y="-1600" width="150" height="60" as="geometry" />
        </mxCell>
        <mxCell id="54mSPvLYBZvLIirZFEM0-13" value="" style="edgeStyle=orthogonalEdgeStyle;rounded=0;orthogonalLoop=1;jettySize=auto;html=1;" parent="1" source="54mSPvLYBZvLIirZFEM0-8" target="54mSPvLYBZvLIirZFEM0-12" edge="1">
          <mxGeometry relative="1" as="geometry" />
        </mxCell>
        <mxCell id="54mSPvLYBZvLIirZFEM0-15" value="" style="edgeStyle=orthogonalEdgeStyle;rounded=0;orthogonalLoop=1;jettySize=auto;html=1;" parent="1" source="54mSPvLYBZvLIirZFEM0-8" target="54mSPvLYBZvLIirZFEM0-14" edge="1">
          <mxGeometry relative="1" as="geometry" />
        </mxCell>
        <mxCell id="54mSPvLYBZvLIirZFEM0-8" value="Kiá»m tra id khoa há»c cÃ³ tá»n táº¡i&amp;nbsp;" style="rhombus;whiteSpace=wrap;html=1;" parent="1" vertex="1">
          <mxGeometry x="270" y="-1470" width="260" height="80" as="geometry" />
        </mxCell>
        <mxCell id="54mSPvLYBZvLIirZFEM0-10" value="Y" style="text;html=1;align=center;verticalAlign=middle;resizable=0;points=[];autosize=1;strokeColor=none;fillColor=none;" parent="1" vertex="1">
          <mxGeometry x="405" y="-1642" width="30" height="30" as="geometry" />
        </mxCell>
        <mxCell id="54mSPvLYBZvLIirZFEM0-11" value="Y" style="text;html=1;align=center;verticalAlign=middle;resizable=0;points=[];autosize=1;strokeColor=none;fillColor=none;" parent="1" vertex="1">
          <mxGeometry x="415" y="-1482" width="30" height="30" as="geometry" />
        </mxCell>
        <mxCell id="rIPCqXTWfstY7Fvrf4iB-2" value="" style="edgeStyle=orthogonalEdgeStyle;rounded=0;orthogonalLoop=1;jettySize=auto;html=1;" edge="1" parent="1" source="54mSPvLYBZvLIirZFEM0-12" target="rIPCqXTWfstY7Fvrf4iB-1">
          <mxGeometry relative="1" as="geometry" />
        </mxCell>
        <mxCell id="54mSPvLYBZvLIirZFEM0-12" value="ÄÄng kÃ½ thÃ nh cÃ´ng&lt;br&gt;&lt;div&gt;&lt;span style=&quot;background-color: transparent; color: light-dark(rgb(0, 0, 0), rgb(255, 255, 255));&quot;&gt;y/c thanh toÃ¡n&lt;/span&gt;.&amp;nbsp;&lt;/div&gt;" style="whiteSpace=wrap;html=1;" parent="1" vertex="1">
          <mxGeometry x="340" y="-1332" width="120" height="60" as="geometry" />
        </mxCell>
        <mxCell id="54mSPvLYBZvLIirZFEM0-14" value="KhoÃ¡ há»c khÃ´ng tá»n táº¡i hoáº·c ÄÃ£ ÄÄng kÃ½" style="whiteSpace=wrap;html=1;" parent="1" vertex="1">
          <mxGeometry x="580" y="-1460" width="120" height="60" as="geometry" />
        </mxCell>
        <mxCell id="54mSPvLYBZvLIirZFEM0-16" value="N" style="text;html=1;align=center;verticalAlign=middle;resizable=0;points=[];autosize=1;strokeColor=none;fillColor=none;" parent="1" vertex="1">
          <mxGeometry x="525" y="-1432" width="30" height="30" as="geometry" />
        </mxCell>
        <mxCell id="54mSPvLYBZvLIirZFEM0-17" value="Y" style="text;html=1;align=center;verticalAlign=middle;resizable=0;points=[];autosize=1;strokeColor=none;fillColor=none;" parent="1" vertex="1">
          <mxGeometry x="395" y="-1362" width="30" height="30" as="geometry" />
        </mxCell>
        <mxCell id="rIPCqXTWfstY7Fvrf4iB-4" value="" style="edgeStyle=orthogonalEdgeStyle;rounded=0;orthogonalLoop=1;jettySize=auto;html=1;" edge="1" parent="1" source="rIPCqXTWfstY7Fvrf4iB-1" target="rIPCqXTWfstY7Fvrf4iB-3">
          <mxGeometry relative="1" as="geometry" />
        </mxCell>
        <mxCell id="rIPCqXTWfstY7Fvrf4iB-9" value="" style="edgeStyle=orthogonalEdgeStyle;rounded=0;orthogonalLoop=1;jettySize=auto;html=1;" edge="1" parent="1" source="rIPCqXTWfstY7Fvrf4iB-1" target="rIPCqXTWfstY7Fvrf4iB-8">
          <mxGeometry relative="1" as="geometry" />
        </mxCell>
        <mxCell id="rIPCqXTWfstY7Fvrf4iB-1" value="xá»§ lÃ½ thanh toÃ¡n" style="rhombus;whiteSpace=wrap;html=1;" vertex="1" parent="1">
          <mxGeometry x="325" y="-1230" width="150" height="90" as="geometry" />
        </mxCell>
        <mxCell id="rIPCqXTWfstY7Fvrf4iB-6" value="" style="edgeStyle=orthogonalEdgeStyle;rounded=0;orthogonalLoop=1;jettySize=auto;html=1;" edge="1" parent="1" source="rIPCqXTWfstY7Fvrf4iB-3" target="rIPCqXTWfstY7Fvrf4iB-5">
          <mxGeometry relative="1" as="geometry" />
        </mxCell>
        <mxCell id="rIPCqXTWfstY7Fvrf4iB-3" value="ThÃ´ng bÃ¡o thanh toÃ¡n thÃ nh cÃ´ng" style="whiteSpace=wrap;html=1;" vertex="1" parent="1">
          <mxGeometry x="340" y="-1100" width="120" height="60" as="geometry" />
        </mxCell>
        <mxCell id="rIPCqXTWfstY7Fvrf4iB-5" value="" style="ellipse;whiteSpace=wrap;html=1;" vertex="1" parent="1">
          <mxGeometry x="370" y="-1000" width="60" height="50" as="geometry" />
        </mxCell>
        <mxCell id="rIPCqXTWfstY7Fvrf4iB-7" value="Y" style="text;html=1;align=center;verticalAlign=middle;resizable=0;points=[];autosize=1;strokeColor=none;fillColor=none;" vertex="1" parent="1">
          <mxGeometry x="405" y="-1132" width="30" height="30" as="geometry" />
        </mxCell>
        <mxCell id="rIPCqXTWfstY7Fvrf4iB-8" value="ThÃ´ng bÃ¡o thanh toÃ¡n lá»i, YC thanh toÃ¡n sau" style="whiteSpace=wrap;html=1;" vertex="1" parent="1">
          <mxGeometry x="570" y="-1215" width="120" height="60" as="geometry" />
        </mxCell>
        <mxCell id="rIPCqXTWfstY7Fvrf4iB-10" value="N" style="text;html=1;align=center;verticalAlign=middle;resizable=0;points=[];autosize=1;strokeColor=none;fillColor=none;" vertex="1" parent="1">
          <mxGeometry x="495" y="-1222" width="30" height="30" as="geometry" />
        </mxCell>
        <mxCell id="rIPCqXTWfstY7Fvrf4iB-16" style="edgeStyle=orthogonalEdgeStyle;rounded=0;orthogonalLoop=1;jettySize=auto;html=1;exitX=0.617;exitY=-0.033;exitDx=0;exitDy=0;exitPerimeter=0;entryX=1;entryY=0.5;entryDx=0;entryDy=0;" edge="1" parent="1" source="rIPCqXTWfstY7Fvrf4iB-14" target="54mSPvLYBZvLIirZFEM0-1">
          <mxGeometry relative="1" as="geometry">
            <mxPoint x="515" y="-1900.5" as="targetPoint" />
            <mxPoint x="650" y="-1750.5" as="sourcePoint" />
            <Array as="points">
              <mxPoint x="609" y="-1855" />
            </Array>
          </mxGeometry>
        </mxCell>
        <mxCell id="rIPCqXTWfstY7Fvrf4iB-14" value="ThÃ´ng bÃ¡o phai ÄÄng nháº­p&amp;nbsp;" style="whiteSpace=wrap;html=1;" vertex="1" parent="1">
          <mxGeometry x="570" y="-1702" width="120" height="60" as="geometry" />
        </mxCell>
      </root>
    </mxGraphModel>
  </diagram>
</mxfile>
